HIERARCHY
ROOT simHips
{
  OFFSET -15.6202 97.8545 -2.74725
  CHANNELS 6 Xposition Yposition Zposition Zrotation Xrotation Yrotation
  JOINT simSpine
  {
    OFFSET -0.000355721 21.3001 -0.016921
    CHANNELS 3 Zrotation Xrotation Yrotation
    JOINT simLeftArm
    {
      OFFSET 13.5181 21.3012 0
      CHANNELS 3 Zrotation Xrotation Yrotation
      JOINT simLeftForeArm
      {
        OFFSET 24.5783 0 0
        CHANNELS 3 Zrotation Xrotation Yrotation
        JOINT simLeftHand
        {
          OFFSET 24.5783 0 0
          CHANNELS 3 Zrotation Xrotation Yrotation
          End Site
          {
            OFFSET 7.32568 1.52588e-005 0.0169305
          }
        }
      }
    }
    JOINT simHead
    {
      OFFSET 0 27.4458 -0.00489235
      CHANNELS 3 Zrotation Xrotation Yrotation
      End Site
      {
        OFFSET 0 0 0
      }
    }
    JOINT simRightArm
    {
      OFFSET -13.5174 21.3012 0
      CHANNELS 3 Zrotation Xrotation Yrotation
      JOINT simRightForeArm
      {
        OFFSET -24.5783 0 0
        CHANNELS 3 Zrotation Xrotation Yrotation
        JOINT simRightHand
        {
          OFFSET -24.5783 0 0
          CHANNELS 3 Zrotation Xrotation Yrotation
          End Site
          {
            OFFSET -7.32568 1.52588e-005 0.0169305
          }
        }
      }
    }
  }
  JOINT simRightUpLeg
  {
    OFFSET -8.44614 -9.41038 0.835684
    CHANNELS 3 Zrotation Xrotation Yrotation
    JOINT simRightLeg
    {
      OFFSET 0 -40.9639 0
      CHANNELS 3 Zrotation Xrotation Yrotation
      JOINT simRightFoot
      {
        OFFSET 0 -40.9639 0
        CHANNELS 3 Zrotation Xrotation Yrotation
        End Site
        {
          OFFSET 0.50614 -9.67405 14.6709
        }
      }
    }
  }
  JOINT simLeftUpLeg
  {
    OFFSET 8.44614 -9.41038 0.835684
    CHANNELS 3 Zrotation Xrotation Yrotation
    JOINT simLeftLeg
    {
      OFFSET 0 -40.9639 0
      CHANNELS 3 Zrotation Xrotation Yrotation
      JOINT simLeftFoot
      {
        OFFSET 0 -40.9639 0
        CHANNELS 3 Zrotation Xrotation Yrotation
        End Site
        {
          OFFSET -0.50614 -9.67405 14.6709
        }
      }
    }
  }
}
MOTION
Frames:	24
Frame Time:	0.0333333
-45.1462 85.7642 8.10973 -5.46466 2.5681 40.894 8.0011 20.3088 0.585251 -50.022 30.5028 -31.4454 -4.1973 -19.7584 -66.3206 14.0324 -3.76492 -35.5273 -5.43375 -17.1579 -3.2524 39.8612 7.41809 -8.62693 17.2568 -4.73671 59.7705 -8.08409 4.528 25.3673 -6.06336 -32.3601 -6.61438 178.944 85.9514 171.87 -14.3794 -2.21903 15.9385 8.41557 -13.9174 1.36642 -34.954 61.1954 32.0018 8.06093 -28.1279 5.02969 
-39.7912 86.6542 13.6824 -3.85498 1.8341 36.657 8.05562 20.3263 2.29147 -48.1244 30.6569 -34.1969 -3.40756 -21.2717 -81.8298 18.219 -4.29629 -37.594 -7.05847 -15.9618 -2.43451 37.9751 10.583 -15.6512 19.9651 -5.33301 62.677 -8.8472 5.19429 26.3394 -1.01704 -41.7648 -8.05475 -92.872 85.9911 86.6821 -6.41792 -7.18755 8.1697 7.42137 -2.33294 1.54918 -31.7862 52.3859 30.1524 7.62899 -22.0306 2.1507 
-33.9934 87.8875 19.6665 -2.56264 1.21808 33.0735 8.96221 20.1342 2.99401 -48.3153 29.1328 -34.1004 -0.390021 -20.0654 -93.1573 22.2155 -3.97645 -38.4029 -8.85671 -15.8448 -1.07231 37.5492 14.5864 -21.337 24.3238 -6.18584 64.6986 -9.98054 5.66607 26.5322 6.9428 -46.7248 -6.36474 -36.589 75.4609 31.579 -1.74772 -9.29338 7.01351 5.06088 7.97333 2.01812 -26.7809 44.0121 28.3103 8.82247 -9.9393 -4.33056 
-27.6929 89.156 26.276 -1.82947 0.724191 30.3709 9.62752 19.8109 2.61269 -45.0143 31.0298 -36.1138 -1.81513 -20.0233 -94.6694 27.0974 -3.0723 -40.2382 -9.38358 -16.8804 0.970572 39.3121 17.4148 -24.8449 28.1739 -6.7457 65.1779 -10.1686 5.67039 25.8296 13.4815 -45.9739 -4.44899 -20.6476 57.0726 17.2719 1.73504 -10.4144 11.6422 2.03053 16.2377 4.54128 -19.2585 37.5295 26.8824 15.7106 5.13423 -18.6909 
-20.9209 89.9104 33.0685 -1.03226 0.642534 28.8602 9.3608 18.5047 0.938194 -39.9616 34.8333 -38.8433 -4.67272 -21.2522 -87.7106 23.0929 -3.32632 -39.9222 -8.55281 -17.309 4.02691 42.7354 18.3108 -26.9036 30.8927 -6.89916 64.1072 -8.24329 4.71 23.6772 14.7905 -40.7339 -4.69888 -9.80886 33.8478 9.42719 2.63862 -8.45039 17.7785 -1.86527 21.4789 8.96179 -9.89787 34.8874 25.8257 25.3858 11.3858 -41.5009 
-14.1477 89.6987 40.0227 0.50363 0.501294 28.769 7.86416 16.9547 -1.22099 -35.9128 36.997 -40.9182 -5.17263 -21.2085 -76.1748 15.0939 -3.38247 -36.7016 -6.79459 -16.5697 7.83477 46.9125 17.6657 -28.2236 32.6905 -6.76257 61.4879 -5.31288 3.08931 20.4652 14.101 -31.5701 -5.40591 -3.71038 9.21669 4.57412 1.33369 -2.46621 17.6351 -3.67561 24.1987 11.1097 -5.37624 36.3428 25.8963 32.3272 11.1723 -56.7018 
-7.71218 88.3451 47.0425 2.1827 -0.159996 30.0434 7.08963 15.5724 -2.90402 -33.8377 37.8961 -43.7155 -3.01432 -16.8035 -61.4734 16.5974 -1.46087 -36.8295 -5.83488 -14.1317 10.7421 50.5423 15.0412 -29.3234 33.0125 -6.42513 56.7258 -2.77499 1.24201 17.7218 13.5323 -28.16 -4.6458 -2.73121 4.25059 3.41474 -0.605404 -0.414059 16.386 -1.5782 23.7911 7.11518 -9.49447 45.4369 27.8896 33.8187 5.52051 -58.2012 
-2.2027 86.8157 53.5411 3.70545 -1.56301 31.4937 7.38035 15.1518 -3.22267 -34.1412 37.4685 -46.9461 0.418254 -8.5024 -46.235 17.473 0.470196 -35.0179 -6.30656 -10.9822 11.3725 52.9901 11.4341 -28.7675 31.18 -6.20361 49.8508 -0.903535 -0.503331 16.5307 13.9584 -29.0632 -4.63423 -4.19825 14.6413 4.26807 -18.2145 14.6866 19.4929 3.0808 20.851 2.64103 -19.2928 57.7123 35.1875 36.6012 -0.135485 -59.124 
2.29552 85.3726 59.3191 5.34493 -4.49701 30.3023 9.2434 18.8533 -2.13218 -36.9915 35.9486 -49.6086 3.56138 -0.432696 -31.7004 14.5433 2.01016 -28.6998 -9.14087 -10.2576 9.95927 52.0074 8.37455 -21.7275 28.779 -6.85221 40.3139 0.274528 -1.88091 14.6636 22.8603 -34.4902 0.44793 -24.197 39.3505 13.9488 -12.194 4.16398 15.724 8.35699 16.8937 -2.45692 -44.4483 67.2565 56.1149 43.5279 -6.29355 -58.0155 
6.80087 84.6366 64.1427 5.73036 -6.62401 28.2048 9.79329 22.6853 -4.03009 -44.6583 30.6608 -42.6278 2.15262 1.92965 -20.6081 10.2637 1.69079 -22.1662 -9.23579 -10.7791 10.0939 49.4318 6.84205 -8.48793 26.7425 -8.11366 28.717 1.3411 -2.96292 11.6799 23.7111 -34.1444 -0.676692 -31.6646 50.0679 19.7744 -10.885 -2.13746 16.1149 11.4984 8.53369 -1.73219 -77.6801 75.0269 88.7052 47.5266 -9.52445 -51.7134 
10.9856 84.5387 68.6905 5.20655 -7.41576 28.58 8.93471 23.3792 -5.8244 -49.0505 25.0918 -34.2989 0.684215 1.21601 -15.6654 6.32439 0.629114 -17.1557 -6.47108 -9.23384 8.45104 48.7253 4.32552 -1.38595 25.2934 -8.09717 26.4009 -0.108016 -2.49803 10.4753 21.4236 -32.4373 -2.43786 -31.8719 56.2496 20.8312 -9.30865 -8.24969 14.7513 13.974 -3.58636 1.51835 -119.968 78.9688 132.495 39.2307 -5.16146 -35.6569 
15.1099 85.1378 72.9587 4.38851 -7.63993 28.3116 7.32172 23.3893 -4.43033 -47.7861 23.3965 -29.4015 0.770969 0.801571 -17.6716 5.91253 0.79294 -16.6793 -2.8811 -7.73625 5.69054 47.16 0.541091 0.556774 27.0936 -8.33938 32.4445 -0.322083 -2.40038 11.8043 19.5833 -30.4069 -3.73607 -31.9574 60.2442 22.1551 -8.02782 -10.9677 14.349 15.5567 -16.617 3.43534 -135.809 80.0586 140.667 17.507 -0.0339291 -5.86322 
18.8844 86.1431 76.4795 3.58999 -7.40437 27.7766 5.44592 24.0363 -2.48374 -44.5749 22.9964 -25.8304 0.871866 -0.982745 -23.309 6.59817 0.823655 -18.9239 0.918526 -7.92221 2.93509 44.3753 -1.26989 2.1793 28.1264 -8.10105 41.6809 -1.19917 -1.65171 13.3738 15.6149 -29.6634 -6.12367 -28.6015 64.5986 21.8689 -9.06126 -9.82513 15.679 16.3774 -28.1912 5.24576 -108.755 86.0906 107.666 4.86404 -6.67983 14.3775 
22.7398 87.3036 79.7173 3.21083 -6.8663 26.0158 2.5892 25.1065 -0.485328 -42.254 21.8027 -21.1424 1.11309 -3.34126 -29.6478 7.96868 1.08009 -20.8513 4.45055 -8.4195 -0.190984 40.4018 -0.800224 4.55906 28.4865 -7.93332 51.2042 -2.90467 -0.519012 15.1282 10.2818 -30.7365 -8.51664 -24.7392 70.5825 21.6481 -13.8082 -2.66726 18.9995 14.3131 -35.168 5.56366 11.8471 78.0788 -12.0596 1.38423 -9.98885 14.665 
26.7961 88.3475 83.2131 3.36455 -5.98681 22.4011 -1.56357 26.3433 2.02832 -41.9223 18.5188 -14.914 1.20097 -5.62746 -34.9268 8.92601 1.17003 -22.1478 7.33589 -9.38838 -2.92782 35.9729 -0.960145 7.89067 29.4816 -8.12451 59.9957 -3.33123 -0.221942 16.3381 4.24749 -33.1027 -9.90688 -21.3412 76.7717 21.7516 -21.3059 7.03985 26.5832 10.9617 -35.7624 2.41472 16.934 58.6043 -15.865 -2.41539 -8.55765 6.88392 
30.8619 88.714 87.0609 3.59302 -5.40986 16.7241 -3.44528 26.1615 4.72398 -44.9286 15.9808 -8.02306 0.307503 -7.6743 -38.8457 8.95774 0.892566 -22.7353 7.07293 -9.98065 -4.71116 30.2047 -3.69879 10.9747 31.3065 -8.14606 68.2166 -1.86702 -1.45099 16.9899 1.20427 -35.6344 -9.53169 -37.9016 81.8111 38.1342 -25.094 9.22628 32.9325 10.8487 -31.6622 -2.8475 13.8048 40.6378 -14.0844 -4.12177 -0.0941297 2.01864 
35.3719 87.8188 91.2925 4.55504 -6.08787 9.33543 -3.97747 25.12 6.70912 -49.6307 15.3869 -0.834357 0.168551 -8.59481 -41.7617 8.85587 0.945904 -22.9806 5.54878 -8.7904 -5.1688 26.1342 -8.60952 14.1842 31.2328 -6.83437 76.242 -0.272408 -3.11976 17.2622 0.0302397 -37.5576 -8.27399 -85.2616 83.1729 82.6713 -22.7868 5.6599 28.3782 11.1055 -26.7102 -8.91947 12.7837 35.4323 -14.3844 -4.62632 3.11251 0.0557579 
40.0844 85.6469 95.5942 4.94933 -8.17141 -0.0750725 -1.79883 23.923 8.21589 -56.1595 16.0711 5.21554 -0.109222 -8.82338 -42.7314 7.99457 0.886693 -22.0758 2.16021 -6.23142 -5.36684 23.6817 -15.1302 18.0526 29.6558 -3.83374 83.4663 2.83141 -5.87563 16.6546 1.35265 -40.0031 -6.76776 -111.573 79.2923 105.408 -20.4191 2.34874 22.6309 10.0848 -22.0012 -11.6737 17.3454 45.1364 -17.613 -12.8405 -8.78904 -1.98371 
44.4567 83.1425 99.4447 5.1194 -10.8522 -8.02477 0.483494 23.9816 6.85949 -60.5004 16.8539 7.55314 -2.05866 -8.8648 -41.2799 6.6474 0.205613 -21.2322 -1.10691 -4.01918 -3.02605 25.2002 -22.4674 24.3237 26.8217 0.0809087 88.616 8.77244 -10.115 15.8147 1.88205 -42.3907 -6.98493 -111.304 76.7306 104.421 -18.9672 0.408069 21.3407 11.2183 -19.0689 -6.11442 13.9688 56.2947 -14.6754 -11.6371 -20.6998 -4.29309 
47.8693 81.4874 102.579 5.00159 -12.8624 -14.303 1.07709 26.8113 4.67343 -59.8299 17.7586 2.25256 -3.35299 -8.16791 -38.0885 6.33738 -0.26218 -21.7246 -2.60872 -6.18984 1.69052 29.6936 -27.1347 30.5707 24.1508 2.80398 91.7508 12.2749 -12.4622 16.3946 3.25678 -44.3253 -7.91832 -97.5129 76.1454 91.2819 -15.3351 -3.6041 20.3473 12.7162 -17.4156 -0.586114 7.45286 65.263 -9.64981 -8.71611 -25.0963 -5.11688 
50.4416 80.5637 105.331 4.67058 -13.9886 -19.1273 1.26008 29.5048 2.67096 -55.5317 20.0759 -6.93966 -1.96591 -6.5046 -35.6494 7.09018 0.313582 -21.7568 -2.90837 -8.02693 5.58181 30.6246 -24.8035 33.0668 24.5014 2.85137 91.543 11.1795 -11.6898 18.4084 4.4205 -45.4424 -9.8749 -71.8759 76.5659 66.3959 -12.2796 -5.91753 18.84 14.8974 -14.8952 4.28153 -5.4797 69.5577 1.61447 -4.40699 -27.6308 -4.35278 
52.315 80.2975 108.639 4.02858 -14.4399 -25.256 -0.0961591 31.5653 2.87601 -49.7114 19.0448 -14.8906 -1.10222 -6.01287 -35.5354 8.00694 0.820982 -21.532 -2.90855 -8.88527 7.8228 27.7015 -16.7332 33.096 25.4524 0.543919 89.2938 6.55045 -8.47193 19.5784 7.03278 -45.0715 -11.1165 -44.7251 74.3678 39.013 -11.3423 -6.60259 19.3419 15.2288 -9.99464 6.38099 -17.4335 69.6451 12.3884 -3.84769 -31.0844 -3.83557 
53.4559 80.5355 112.033 3.5344 -14.0698 -30.1964 -1.26202 30.8514 2.88816 -45.7482 15.4637 -18.7239 0.0338014 -6.73921 -37.1399 8.23539 0.664591 -21.7965 -2.6971 -7.50257 8.52126 23.6484 -4.98648 31.0644 27.9361 -2.61715 85.9334 3.11334 -5.51713 20.3805 8.30963 -43.8196 -13.2133 -22.1206 70.5451 16.7272 -11.2818 -7.42986 21.723 14.797 -5.7307 8.41089 -24.4718 67.9031 19.0594 -2.5891 -32.888 -2.62823 
53.7557 81.1636 115.613 3.32841 -12.9558 -34.1225 -1.66994 28.0719 2.21133 -44.5036 11.5431 -18.3837 1.89904 -8.78239 -41.2815 9.39287 0.439529 -23.0499 -2.48083 -6.69226 8.09481 21.0779 8.58395 27.4384 32.3639 -5.21141 83.3907 0.783807 -3.17467 21.4493 9.00648 -41.6022 -15.2866 -6.30364 65.6953 1.27804 -12.4169 -7.45946 24.9856 14.2471 -1.86603 10.3515 -27.818 64.8335 22.3362 -1.29318 -33.3639 -1.4671 
